<?xml version="1.0" encoding="UTF-8"?>
<svg xmlns="http://www.w3.org/2000/svg" version="1.1" width="200" height="200" viewBox="0 0 200 200"><rect x="0" y="0" width="200" height="200" fill="#ffffff"/><g transform="scale(9.524)"><g transform="translate(0,0)"><path fill-rule="evenodd" d="M12 0L12 2L11 2L11 1L10 1L10 4L9 4L9 3L8 3L8 5L9 5L9 6L8 6L8 7L9 7L9 6L10 6L10 7L11 7L11 6L12 6L12 7L13 7L13 6L12 6L12 5L13 5L13 0ZM11 3L11 4L10 4L10 6L11 6L11 5L12 5L12 3ZM0 8L0 9L2 9L2 10L1 10L1 11L0 11L0 12L2 12L2 13L4 13L4 12L6 12L6 13L7 13L7 12L8 12L8 16L9 16L9 17L10 17L10 18L9 18L9 19L8 19L8 21L9 21L9 19L10 19L10 21L11 21L11 20L12 20L12 21L13 21L13 20L14 20L14 21L16 21L16 20L17 20L17 21L18 21L18 20L19 20L19 21L20 21L20 20L19 20L19 19L21 19L21 18L19 18L19 17L21 17L21 15L18 15L18 14L21 14L21 11L20 11L20 13L18 13L18 12L19 12L19 10L20 10L20 9L18 9L18 8L16 8L16 9L15 9L15 14L14 14L14 13L13 13L13 12L12 12L12 13L13 13L13 14L10 14L10 13L11 13L11 12L10 12L10 9L8 9L8 8L5 8L5 9L2 9L2 8ZM11 8L11 9L12 9L12 11L13 11L13 9L12 9L12 8ZM5 9L5 10L4 10L4 11L5 11L5 10L7 10L7 11L6 11L6 12L7 12L7 11L9 11L9 10L7 10L7 9ZM16 9L16 12L17 12L17 11L18 11L18 10L17 10L17 9ZM2 10L2 12L3 12L3 10ZM17 13L17 14L16 14L16 15L17 15L17 16L15 16L15 17L12 17L12 16L11 16L11 15L10 15L10 14L9 14L9 15L10 15L10 16L11 16L11 18L10 18L10 19L12 19L12 20L13 20L13 19L14 19L14 20L16 20L16 17L17 17L17 16L18 16L18 17L19 17L19 16L18 16L18 15L17 15L17 14L18 14L18 13ZM13 14L13 16L14 16L14 14ZM12 18L12 19L13 19L13 18ZM18 18L18 19L17 19L17 20L18 20L18 19L19 19L19 18ZM0 0L0 7L7 7L7 0ZM1 1L1 6L6 6L6 1ZM2 2L2 5L5 5L5 2ZM14 0L14 7L21 7L21 0ZM15 1L15 6L20 6L20 1ZM16 2L16 5L19 5L19 2ZM0 14L0 21L7 21L7 14ZM1 15L1 20L6 20L6 15ZM2 16L2 19L5 19L5 16Z" fill="#000000"/></g></g></svg>
