<?xml version="1.0" encoding="UTF-8"?>
<svg xmlns="http://www.w3.org/2000/svg" version="1.1" width="200" height="200" viewBox="0 0 200 200"><rect x="0" y="0" width="200" height="200" fill="#ffffff"/><g transform="scale(9.524)"><g transform="translate(0,0)"><path fill-rule="evenodd" d="M10 0L10 1L8 1L8 2L10 2L10 3L8 3L8 4L9 4L9 5L8 5L8 7L9 7L9 8L6 8L6 9L5 9L5 8L0 8L0 9L1 9L1 10L0 10L0 11L1 11L1 12L0 12L0 13L7 13L7 12L9 12L9 13L8 13L8 15L9 15L9 16L8 16L8 21L9 21L9 19L10 19L10 21L16 21L16 20L17 20L17 21L18 21L18 20L19 20L19 21L20 21L20 20L19 20L19 19L18 19L18 20L17 20L17 19L15 19L15 20L11 20L11 19L10 19L10 18L12 18L12 19L14 19L14 18L12 18L12 17L15 17L15 18L19 18L19 17L21 17L21 16L20 16L20 15L18 15L18 14L21 14L21 13L20 13L20 12L21 12L21 11L20 11L20 12L19 12L19 10L21 10L21 9L20 9L20 8L19 8L19 9L18 9L18 8L17 8L17 9L16 9L16 8L15 8L15 9L16 9L16 10L14 10L14 8L13 8L13 9L12 9L12 8L11 8L11 9L10 9L10 10L11 10L11 9L12 9L12 11L11 11L11 12L12 12L12 13L13 13L13 12L14 12L14 13L15 13L15 14L11 14L11 13L10 13L10 11L9 11L9 8L10 8L10 7L11 7L11 6L12 6L12 7L13 7L13 6L12 6L12 5L13 5L13 0ZM11 1L11 2L12 2L12 1ZM10 3L10 5L9 5L9 7L10 7L10 6L11 6L11 5L12 5L12 3ZM2 9L2 10L3 10L3 11L2 11L2 12L4 12L4 9ZM6 9L6 10L7 10L7 9ZM16 10L16 11L14 11L14 12L15 12L15 13L17 13L17 14L15 14L15 15L13 15L13 16L15 16L15 17L17 17L17 16L18 16L18 17L19 17L19 16L18 16L18 15L17 15L17 14L18 14L18 13L19 13L19 12L17 12L17 11L18 11L18 10ZM6 11L6 12L7 12L7 11ZM9 14L9 15L10 15L10 14ZM15 15L15 16L16 16L16 15ZM9 16L9 18L10 18L10 17L12 17L12 16ZM0 0L0 7L7 7L7 0ZM1 1L1 6L6 6L6 1ZM2 2L2 5L5 5L5 2ZM14 0L14 7L21 7L21 0ZM15 1L15 6L20 6L20 1ZM16 2L16 5L19 5L19 2ZM0 14L0 21L7 21L7 14ZM1 15L1 20L6 20L6 15ZM2 16L2 19L5 19L5 16Z" fill="#000000"/></g></g></svg>
